<svg width="2500" height="474" viewBox="0 0 2500 474" fill="none" xmlns="http://www.w3.org/2000/svg">
<path d="M2018 155V170H2040V155" stroke="#D9DCDD"/>
<path d="M2044 158L2029 147L2014 158" stroke="#D9DCDD" stroke-linecap="round"/>
<path d="M2037 170V157H2029V170" stroke="#D9DCDD"/>
<rect x="2020.5" y="157.5" width="6" height="5" stroke="#D9DCDD"/>
<line x1="2023.5" y1="157" x2="2023.5" y2="163" stroke="#D9DCDD"/>
<line x1="2026.99" y1="159.573" x2="2020.99" y2="159.5" stroke="#D9DCDD"/>
<path d="M2038 153V146H2035V150.87" stroke="#D9DCDD" stroke-linecap="round"/>
<rect x="2040" y="167" width="2" height="3" rx="1" stroke="#D9DCDD"/>
<rect x="2016" y="167" width="2" height="3" rx="1" stroke="#D9DCDD"/>
<path d="M321.768 47.8643C309.199 40.8916 273.174 45.2031 229.907 58.5967C154.185 110.355 90.2784 186.609 85.8155 309.065C85.005 311.995 77.5391 308.665 76.0596 307.762C55.6104 268.567 47.5098 227.298 64.585 167.762C67.7686 162.464 57.3585 155.945 55.4932 157.801C51.7432 161.561 36.1231 178.201 25.7471 196.199C-25.6884 285.423 7.9444 399.744 97.9346 449.778C187.9 499.886 301.509 467.562 351.602 377.566C409.556 273.699 355.742 66.834 321.768 47.8643Z" fill="#BDBDBD"/>
<path d="M643.799 97.7129C537.129 97.7129 459.697 177.02 459.697 286.287C459.697 396.443 536.924 473.387 647.52 473.387C703.379 473.387 747.603 455.921 782.773 419.964C793.281 408.621 794.409 397.688 794.409 393.509C794.409 375.696 781.162 362.757 762.915 362.757C753.711 362.757 746.021 366.233 737.192 374.393C717.275 392.947 691.05 411.907 647.52 411.907C586.982 411.907 537.754 366.458 534.653 308.099H775.581C801.777 308.099 814.507 295.843 814.507 270.662C814.507 263.24 814.507 257.894 813.013 247.337C800.034 153.655 736.787 97.7275 643.809 97.7275L643.799 97.7129ZM643.799 156.209C701.646 156.209 738.76 193.074 741.05 252.571H534.727C540.146 197.508 586.699 156.209 643.799 156.209ZM1044.57 97.7129C996.108 97.7129 948.13 125.579 929.38 164.28V140.359C929.38 103.313 900.669 101.434 894.917 101.434C877.905 101.434 859.717 111.658 859.717 140.359V429.227C859.717 467.703 890.283 469.647 896.406 469.647C902.534 469.647 933.11 467.703 933.11 429.227V274.373C933.11 207 971.294 159.939 1025.96 159.939C1078.9 159.939 1104.65 194.686 1104.65 266.175V429.227C1104.65 467.703 1135.22 469.647 1141.35 469.647C1147.48 469.647 1178.04 467.703 1178.04 429.227V243.128C1178.04 172.835 1142.97 97.7373 1044.57 97.7373V97.7129ZM1510.12 101.438C1493.16 101.438 1480.86 111.331 1473.54 130.794L1373.13 383.294L1273.48 130.794C1265.67 111.043 1253.47 101.438 1236.15 101.438C1215.91 101.438 1199.44 117.229 1199.44 136.644C1199.44 141.443 1199.99 147.679 1204.05 157.405L1319.45 429.876C1333.2 462.747 1355.82 469.647 1372.38 469.647C1388.93 469.647 1411.56 462.747 1425.34 429.896L1541.48 155.906C1545.45 146.297 1546.06 139.241 1546.06 135.901C1546.06 116.263 1530.6 101.443 1510.12 101.443V101.438ZM1723.45 97.7129C1676.51 97.7129 1632.79 110.789 1600.37 134.5C1589.37 142.088 1584.02 151.551 1584.02 163.455C1584.02 179.842 1596.53 192.688 1612.53 192.688C1619.45 192.688 1627.2 189.935 1634.31 184.954C1662.19 166.37 1688.39 157.703 1716.74 157.703C1771.01 157.703 1802.16 185.301 1802.16 233.426V241.395C1680.35 241.526 1556.46 256.238 1556.46 362.21C1556.46 438.479 1621.63 472.625 1686.22 472.625C1737.67 472.625 1778.75 452.239 1805.11 413.646V432.205C1805.11 459.842 1823.66 469.642 1839.59 469.642C1842.94 469.642 1872.55 468.592 1872.55 432.205V237.879C1872.55 150.096 1816.8 97.6934 1723.45 97.6934L1723.45 97.7129ZM1786.72 295.433H1802.16V312.342C1802.16 374.178 1762.78 414.129 1701.87 414.129C1685.33 414.129 1631.36 410.281 1631.36 360.721C1631.36 302.2 1720.02 295.433 1786.72 295.433ZM2063.71 168.128C2095.82 168.128 2097.45 143.138 2097.45 138.133C2097.45 123.274 2088.58 107.391 2063.71 107.391H1997.68V40.6035C1997.68 10.7695 1978.33 0.183594 1961.73 0.183594C1955.61 0.183594 1925.04 2.12695 1925.04 40.6035V357.762C1925.04 430.955 1961.15 469.642 2029.47 469.642C2047.15 469.642 2064.38 466.517 2075.63 461.268C2088.55 454.822 2095.95 444.227 2095.95 432.205C2095.95 415.247 2083.65 402.947 2066.69 402.947C2063.42 402.947 2058.76 403.758 2053.62 405.237C2047.33 406.81 2043.08 407.42 2038.42 407.42C2010.62 407.42 1997.68 389.275 1997.68 350.311V168.094H2063.71V168.128ZM2306.37 97.7129C2195.37 97.7129 2114.83 176.395 2114.83 284.783C2114.83 337.557 2134.35 385.657 2169.77 420.213C2204.91 454.495 2253.42 473.372 2306.38 473.372C2416 473.372 2498.66 392.298 2498.66 284.788C2498.66 176.395 2417.77 97.7178 2306.38 97.7178L2306.37 97.7129ZM2306.37 411.141C2230.25 411.141 2190.44 347.576 2190.44 284.773C2190.44 198.484 2250.54 159.188 2306.37 159.188C2362.21 159.188 2422.3 198.484 2422.3 284.773C2422.3 371.604 2362.21 411.141 2306.37 411.141Z" fill="#BDBDBD"/>
</svg>
