<svg width="20" height="20" viewBox="0 0 20 20" fill="none" xmlns="http://www.w3.org/2000/svg">
<g clip-path="url(#clip0_0_3)">
<path d="M3.125 7.69231V19.2308H16.875V7.69231" stroke="#1684B5"/>
<path d="M19.375 10L10 1.53847L0.625 10" stroke="#1684B5" stroke-linecap="round"/>
<path d="M15 19.2308V9.23077H10V19.2308" stroke="#1684B5"/>
<path d="M8.4375 9.61539H4.6875V13.4615H8.4375V9.61539Z" stroke="#1684B5"/>
<path d="M6.5625 9.23077V13.8462" stroke="#1684B5"/>
<path d="M8.74594 11.2098L4.99621 11.1538" stroke="#1684B5"/>
<path d="M15.625 6.15384V0.769226H13.75V4.51505" stroke="#1684B5" stroke-linecap="round"/>
<path d="M18.125 17.6923C18.125 17.2675 17.8452 16.9231 17.5 16.9231C17.1548 16.9231 16.875 17.2675 16.875 17.6923V18.4615C16.875 18.8864 17.1548 19.2308 17.5 19.2308C17.8452 19.2308 18.125 18.8864 18.125 18.4615V17.6923Z" stroke="#1684B5"/>
<path d="M3.125 17.6923C3.125 17.2675 2.84518 16.9231 2.5 16.9231C2.15482 16.9231 1.875 17.2675 1.875 17.6923V18.4615C1.875 18.8864 2.15482 19.2308 2.5 19.2308C2.84518 19.2308 3.125 18.8864 3.125 18.4615V17.6923Z" stroke="#1684B5"/>
</g>
<defs>
<clipPath id="clip0_0_3">
<rect width="20" height="20" fill="white"/>
</clipPath>
</defs>
</svg>
