<svg width="50" height="61" viewBox="0 0 50 61" fill="none" xmlns="http://www.w3.org/2000/svg">
<circle cx="25.5" cy="12.5" r="12" stroke="#2437E0"/>
<path d="M49.4921 60.5H49.4963C49.2666 44.921 38.3217 32.5 25 32.5C11.6783 32.5 0.73341 44.921 0.503685 60.5H0.507912H0.52364H0.539597H0.555786H0.572205H0.588852H0.605732H0.622841H0.640175H0.657742H0.675537H0.693558H0.711807H0.730282H0.748985H0.767914H0.787067H0.80645H0.826054H0.845882H0.86594H0.886215H0.906719H0.927444H0.948391H0.969563H0.990955H1.01257H1.0344H1.05646H1.07874H1.10123H1.12395H1.14689H1.17004H1.19342H1.21701H1.24082H1.26485H1.28909H1.31355H1.33823H1.36312H1.38823H1.41356H1.43909H1.46485H1.49081H1.51699H1.54339H1.57H1.59682H1.62385H1.65109H1.67854H1.70621H1.73409H1.76217H1.79047H1.81897H1.84769H1.87661H1.90574H1.93508H1.96463H1.99438H2.02434H2.0545H2.08488H2.11546H2.14624H2.17723H2.20842H2.23982H2.27142H2.30322H2.33523H2.36744H2.39985H2.43246H2.46527H2.49829H2.5315H2.56492H2.59853H2.63235H2.66636H2.70058H2.73499H2.7696H2.8044H2.83941H2.87461H2.91H2.94559H2.98138H3.01737H3.05354H3.08992H3.12648H3.16325H3.2002H3.23734H3.27468H3.31221H3.34994H3.38785H3.42596H3.46425H3.50274H3.54142H3.58028H3.61934H3.65858H3.69801H3.73763H3.77744H3.81743H3.85761H3.89798H3.93853H3.97927H4.0202H4.06131H4.1026H4.14408H4.18574H4.22758H4.26961H4.31182H4.35421H4.39679H4.43954H4.48248H4.52559H4.56889H4.61237H4.65602H4.69986H4.74388H4.78807H4.83244H4.87699H4.92171H4.96662H5.0117H5.05695H5.10238H5.14799H5.19377H5.23972H5.28585H5.33215H5.37863H5.42528H5.4721H5.5191H5.56626H5.6136H5.66111H5.70879H5.75663H5.80465H5.85284H5.9012H5.94973H5.99842H6.04729H6.09632H6.14552H6.19488H6.24441H6.29411H6.34397H6.394H6.44419H6.49455H6.54507H6.59576H6.6466H6.69762H6.74879H6.80013H6.85163H6.90329H6.9551H7.00709H7.05923H7.11153H7.16399H7.21661H7.26939H7.32233H7.37543H7.42868H7.48209H7.53566H7.58938H7.64326H7.6973H7.75149H7.80584H7.86034H7.91499H7.9698H8.02477H8.07988H8.13515H8.19057H8.24614H8.30186H8.35773H8.41376H8.46994H8.52626H8.58274H8.63936H8.69613H8.75306H8.81012H8.86734H8.92471H8.98222H9.03988H9.09768H9.15563H9.21373H9.27197H9.33035H9.38888H9.44755H9.50637H9.56533H9.62443H9.68367H9.74306H9.80259H9.86226H9.92206H9.98201H10.0421H10.1023H10.1627H10.2232H10.2839H10.3446H10.4056H10.4666H10.5278H10.5891H10.6506H10.7122H10.774H10.8358H10.8978H10.96H11.0223H11.0847H11.1472H11.2099H11.2727H11.3356H11.3987H11.4619H11.5253H11.5887H11.6523H11.716H11.7799H11.8439H11.908H11.9722H12.0366H12.1011H12.1657H12.2305H12.2953H12.3603H12.4255H12.4907H12.5561H12.6216H12.6872H12.7529H12.8188H12.8848H12.9509H13.0172H13.0835H13.15H13.2166H13.2833H13.3502H13.4171H13.4842H13.5514H13.6187H13.6861H13.7537H13.8214H13.8892H13.9571H14.0251H14.0932H14.1615H14.2298H14.2983H14.3669H14.4356H14.5044H14.5734H14.6424H14.7116H14.7809H14.8502H14.9197H14.9893H15.0591H15.1289H15.1988H15.2689H15.339H15.4093H15.4797H15.5501H15.6207H15.6914H15.7622H15.8331H15.9041H15.9753H16.0465H16.1178H16.1892H16.2608H16.3324H16.4042H16.476H16.548H16.62H16.6922H16.7644H16.8368H16.9092H16.9818H17.0544H17.1272H17.2H17.273H17.346H17.4192H17.4924H17.5658H17.6392H17.7127H17.7864H17.8601H17.9339H18.0078H18.0818H18.1559H18.2301H18.3044H18.3788H18.4533H18.5279H18.6025H18.6773H18.7521H18.827H18.9021H18.9772H19.0524H19.1277H19.203H19.2785H19.3541H19.4297H19.5054H19.5813H19.6572H19.7332H19.8092H19.8854H19.9616H20.038H20.1144H20.1909H20.2674H20.3441H20.4209H20.4977H20.5746H20.6516H20.7286H20.8058H20.883H20.9603H21.0377H21.1152H21.1927H21.2704H21.3481H21.4259H21.5037H21.5817H21.6597H21.7378H21.8159H21.8942H21.9725H22.0509H22.1293H22.2079H22.2865H22.3651H22.4439H22.5227H22.6016H22.6806H22.7596H22.8387H22.9179H22.9972H23.0765H23.1559H23.2353H23.3149H23.3945H23.4741H23.5538H23.6336H23.7135H23.7934H23.8734H23.9535H24.0336H24.1138H24.194H24.2744H24.3547H24.4352H24.5157H24.5963H24.6769H24.7576H24.8383H24.9191H25H25.0809H25.1617H25.2424H25.3231H25.4038H25.4843H25.5648H25.6453H25.7256H25.806H25.8862H25.9664H26.0465H26.1266H26.2066H26.2865H26.3664H26.4462H26.5259H26.6055H26.6851H26.7647H26.8441H26.9235H27.0028H27.0821H27.1613H27.2404H27.3194H27.3984H27.4773H27.5561H27.6349H27.7135H27.7921H27.8707H27.9491H28.0275H28.1058H28.1841H28.2622H28.3403H28.4183H28.4963H28.5741H28.6519H28.7296H28.8073H28.8848H28.9623H29.0397H29.117H29.1942H29.2714H29.3484H29.4254H29.5023H29.5792H29.6559H29.7326H29.8091H29.8856H29.962H30.0384H30.1146H30.1908H30.2668H30.3428H30.4187H30.4946H30.5703H30.6459H30.7215H30.797H30.8723H30.9476H31.0228H31.0979H31.173H31.2479H31.3227H31.3975H31.4721H31.5467H31.6212H31.6956H31.7699H31.8441H31.9182H31.9922H32.0661H32.1399H32.2136H32.2873H32.3608H32.4342H32.5076H32.5808H32.654H32.727H32.8H32.8728H32.9456H33.0182H33.0908H33.1632H33.2356H33.3078H33.38H33.452H33.524H33.5958H33.6676H33.7392H33.8108H33.8822H33.9535H34.0247H34.0959H34.1669H34.2378H34.3086H34.3793H34.4499H34.5203H34.5907H34.661H34.7311H34.8012H34.8711H34.9409H35.0107H35.0803H35.1498H35.2191H35.2884H35.3576H35.4266H35.4956H35.5644H35.6331H35.7017H35.7702H35.8385H35.9068H35.9749H36.0429H36.1108H36.1786H36.2463H36.3139H36.3813H36.4486H36.5158H36.5829H36.6498H36.7167H36.7834H36.85H36.9165H36.9828H37.0491H37.1152H37.1812H37.2471H37.3128H37.3784H37.4439H37.5093H37.5745H37.6397H37.7047H37.7695H37.8343H37.8989H37.9634H38.0278H38.092H38.1561H38.2201H38.284H38.3477H38.4113H38.4747H38.5381H38.6013H38.6644H38.7273H38.7901H38.8528H38.9153H38.9777H39.04H39.1022H39.1642H39.226H39.2878H39.3494H39.4109H39.4722H39.5334H39.5944H39.6554H39.7161H39.7768H39.8373H39.8977H39.9579H40.018H40.0779H40.1377H40.1974H40.2569H40.3163H40.3756H40.4347H40.4936H40.5525H40.6111H40.6697H40.728H40.7863H40.8444H40.9023H40.9601H41.0178H41.0753H41.1327H41.1899H41.2469H41.3039H41.3606H41.4173H41.4737H41.5301H41.5862H41.6423H41.6981H41.7539H41.8094H41.8649H41.9201H41.9752H42.0302H42.085H42.1397H42.1942H42.2485H42.3027H42.3567H42.4106H42.4643H42.5179H42.5713H42.6246H42.6777H42.7306H42.7834H42.836H42.8885H42.9408H42.9929H43.0449H43.0967H43.1484H43.1999H43.2512H43.3024H43.3534H43.4042H43.4549H43.5055H43.5558H43.606H43.656H43.7059H43.7556H43.8051H43.8545H43.9037H43.9527H44.0016H44.0503H44.0988H44.1472H44.1953H44.2434H44.2912H44.3389H44.3864H44.4337H44.4809H44.5279H44.5747H44.6214H44.6678H44.7142H44.7603H44.8062H44.852H44.8976H44.9431H44.9883H45.0334H45.0783H45.123H45.1676H45.2119H45.2561H45.3001H45.344H45.3876H45.4311H45.4744H45.5175H45.5605H45.6032H45.6458H45.6882H45.7304H45.7724H45.8143H45.8559H45.8974H45.9387H45.9798H46.0207H46.0615H46.102H46.1424H46.1826H46.2226H46.2624H46.302H46.3414H46.3807H46.4197H46.4586H46.4973H46.5357H46.574H46.6121H46.6501H46.6878H46.7253H46.7627H46.7998H46.8368H46.8735H46.9101H46.9465H46.9826H47.0186H47.0544H47.09H47.1254H47.1606H47.1956H47.2304H47.265H47.2994H47.3336H47.3677H47.4015H47.4351H47.4685H47.5017H47.5347H47.5675H47.6002H47.6326H47.6648H47.6968H47.7286H47.7602H47.7916H47.8228H47.8538H47.8845H47.9151H47.9455H47.9757H48.0056H48.0354H48.0649H48.0943H48.1234H48.1523H48.181H48.2095H48.2378H48.2659H48.2938H48.3215H48.3489H48.3762H48.4032H48.43H48.4566H48.483H48.5092H48.5352H48.5609H48.5864H48.6118H48.6369H48.6618H48.6864H48.7109H48.7352H48.7592H48.783H48.8066H48.83H48.8531H48.876H48.8988H48.9213H48.9435H48.9656H48.9874H49.009H49.0304H49.0516H49.0726H49.0933H49.1138H49.1341H49.1541H49.1739H49.1936H49.2129H49.2321H49.251H49.2697H49.2882H49.3064H49.3245H49.3423H49.3598H49.3772H49.3943H49.4111H49.4278H49.4442H49.4604H49.4764H49.4921Z" stroke="#2437E0"/>
</svg>
