<svg width="63" height="69" viewBox="0 0 63 69" fill="none" xmlns="http://www.w3.org/2000/svg">
<rect width="63" height="69" fill="#F5F5F5"/>
<path d="M20.2283 22L1.7222 27.3516C1.29444 27.4753 1 27.8669 1 28.3122V66.6015C1 67.2872 1.6745 67.7695 2.32339 67.5477L19.7959 61.5763C20.0705 61.4825 20.3723 61.5125 20.623 61.6587L31.0946 67.7637C31.3514 67.9134 31.6616 67.9411 31.9408 67.8393L46.4074 62.5645C46.6287 62.4838 46.8713 62.4838 47.0926 62.5645L60.6574 67.5105C61.3098 67.7483 62 67.2653 62 66.571V28.2602C62 27.84 61.7373 27.4647 61.3426 27.3207L46.75 22" stroke="black" stroke-width="2"/>
<path d="M43 11C43 11.6388 42.8434 12.6542 42.5316 14.0012C42.2244 15.3285 41.7824 16.9129 41.247 18.6607C40.1764 22.1552 38.7458 26.2589 37.3108 30.1849C35.8766 34.1086 34.4419 37.8443 33.3654 40.5998C33.0411 41.4301 32.7493 42.1712 32.5 42.8014C32.2507 42.1712 31.9589 41.4301 31.6346 40.5998C30.5581 37.8443 29.1234 34.1086 27.6892 30.1849C26.2542 26.2589 24.8236 22.1552 23.753 18.6607C23.2176 16.9129 22.7756 15.3285 22.4684 14.0012C22.1566 12.6542 22 11.6388 22 11C22 5.51858 26.6587 1 32.5 1C38.3413 1 43 5.51858 43 11Z" fill="#CEE8F0" stroke="black" stroke-width="2"/>
<line x1="20" y1="61" x2="20" y2="49" stroke="black" stroke-width="2"/>
<line x1="20" y1="61" x2="20" y2="49" stroke="black" stroke-opacity="0.2" stroke-width="2"/>
<line x1="20" y1="61" x2="20" y2="49" stroke="black" stroke-opacity="0.2" stroke-width="2"/>
<line x1="20" y1="61" x2="20" y2="49" stroke="black" stroke-opacity="0.2" stroke-width="2"/>
<line x1="20" y1="61" x2="20" y2="49" stroke="black" stroke-opacity="0.2" stroke-width="2"/>
<line x1="32" y1="67" x2="32" y2="49" stroke="black" stroke-width="2"/>
<line x1="32" y1="67" x2="32" y2="49" stroke="black" stroke-opacity="0.2" stroke-width="2"/>
<line x1="32" y1="67" x2="32" y2="49" stroke="black" stroke-opacity="0.2" stroke-width="2"/>
<line x1="32" y1="67" x2="32" y2="49" stroke="black" stroke-opacity="0.2" stroke-width="2"/>
<line x1="32" y1="67" x2="32" y2="49" stroke="black" stroke-opacity="0.2" stroke-width="2"/>
<path d="M47.0022 62L47.0003 49" stroke="black" stroke-width="2"/>
<circle cx="32.5" cy="12.5" r="4" stroke="black"/>
</svg>
